<svg width="50" height="50" viewBox="0 0 50 50" fill="none" xmlns="http://www.w3.org/2000/svg">
<path fill-rule="evenodd" clip-rule="evenodd" d="M25 0C11.1937 0 0 11.1937 0 25C0 38.8062 11.1937 50 25 50C38.8062 50 50 38.8062 50 25C50 11.1937 38.8062 0 25 0ZM25 4.16667C36.4875 4.16667 45.8333 13.5125 45.8333 25C45.8333 36.4875 36.4875 45.8333 25 45.8333C13.5125 45.8333 4.16667 36.4875 4.16667 25C4.16667 13.5125 13.5125 4.16667 25 4.16667ZM30.6083 35.1854C30.9438 35.425 31.375 35.4833 31.7604 35.3375C32.1458 35.1917 32.4312 34.8625 32.5146 34.4625C33.4208 30.2083 35.6167 19.4396 36.4396 15.5708C36.5021 15.2792 36.4 14.9771 36.1708 14.7812C35.9417 14.5875 35.6229 14.5312 35.3396 14.6354C30.9729 16.2521 17.5208 21.2979 12.0229 23.3333C11.6729 23.4625 11.4458 23.7979 11.4583 24.1667C11.4708 24.5354 11.7188 24.8542 12.075 24.9604C14.5417 25.6979 17.7792 26.725 17.7792 26.725C17.7792 26.725 19.2896 31.2937 20.0792 33.6167C20.1771 33.9062 20.4062 34.1375 20.7062 34.2146C21.0083 34.2938 21.3271 34.2125 21.5521 34C22.8188 32.8042 24.7771 30.9562 24.7771 30.9562C24.7771 30.9562 28.4979 33.6833 30.6083 35.1854ZM19.1396 26.1479L20.8896 31.9167L21.2771 28.2625C21.2771 28.2625 28.0333 22.1687 31.8854 18.6937C32 18.5937 32.0146 18.4229 31.9208 18.3021C31.8271 18.1833 31.6583 18.1542 31.5292 18.2354C27.0646 21.0854 19.1396 26.1479 19.1396 26.1479Z" fill="white"/>
</svg>
