<svg id="Слой_1" data-name="Слой 1" xmlns="http://www.w3.org/2000/svg" viewBox="0 0 1070.35 261.34"><defs><style>.cls-1{fill:#686868;}.cls-2{fill:#e2e2e2;}.cls-3{fill:#b2b2b2;}.cls-4{fill:#fff;}</style></defs><path class="cls-1" d="M-245.64,231.8" transform="translate(-147.83 -253.33)"/><polygon class="cls-2" points="80.41 219.23 81.69 125.58 321.18 0 80.41 219.23"/><polygon class="cls-3" points="80.41 219.23 117.4 149.15 321.18 0 80.41 219.23"/><polygon class="cls-4" points="0 71.52 321.18 0 81.69 125.58 0 71.52"/><polygon class="cls-4" points="117.4 149.15 232.36 261.34 321.18 0 117.4 149.15"/><path class="cls-4" d="M574.46,454.29l-9.82-28.85H505.1l-9.62,28.85H469.9l51-143.24h28.24l50.74,143.24Zm-61.79-51h44.4L535,337.86Z" transform="translate(-147.83 -253.33)"/><path class="cls-4" d="M642.29,372.13a9.51,9.51,0,0,0-4.6,8.49q0,5.53,5.83,8.7a51.61,51.61,0,0,0,14.12,4.91q8.28,1.74,16.67,4.4a31.13,31.13,0,0,1,14.23,9.31q5.82,6.66,5.82,17.5,0,14.73-11.35,23.12T654.26,457q-17.81,0-29.06-9T614,422.57h21.69q0,14.54,18.62,14.53,8.19,0,13.1-3a9.54,9.54,0,0,0,4.91-8.69q0-5.54-5.83-8.6A54.47,54.47,0,0,0,652.21,412a158.14,158.14,0,0,1-16.67-4.4,30.76,30.76,0,0,1-14.12-9.41q-5.83-6.75-5.83-17.6,0-14.31,11.15-22.81t27.52-8.49q16.15,0,27.11,9t11,25.17H670.63q0-7.15-4.71-10.74a18.67,18.67,0,0,0-11.66-3.58Q646.9,369.17,642.29,372.13Z" transform="translate(-147.83 -253.33)"/><path class="cls-4" d="M743.17,372.13a9.52,9.52,0,0,0-4.61,8.49q0,5.53,5.83,8.7a51.73,51.73,0,0,0,14.12,4.91q8.29,1.74,16.68,4.4a31.1,31.1,0,0,1,14.22,9.31q5.83,6.66,5.83,17.5,0,14.73-11.36,23.12T755.13,457q-17.79,0-29-9t-11.25-25.37h21.68q0,14.54,18.62,14.53,8.19,0,13.1-3a9.54,9.54,0,0,0,4.91-8.69q0-5.54-5.83-8.6A54.52,54.52,0,0,0,753.09,412a158.32,158.32,0,0,1-16.68-4.4,30.82,30.82,0,0,1-14.12-9.41q-5.82-6.75-5.83-17.6,0-14.31,11.15-22.81t27.52-8.49q16.17,0,27.12,9t10.94,25.17H771.5q0-7.15-4.7-10.74a18.7,18.7,0,0,0-11.67-3.58Q747.77,369.17,743.17,372.13Z" transform="translate(-147.83 -253.33)"/><path class="cls-4" d="M822.45,335.61V311.05h22.1v24.56Zm0,118.68V352h22.1V454.29Z" transform="translate(-147.83 -253.33)"/><path class="cls-4" d="M957.5,311.05h22.09V454.29H957.5V439.55q-12.69,17.4-36,17.4-21.08,0-35.91-15.66t-14.83-38.16q0-22.71,14.83-38.26t35.91-15.55q23.53,0,36,17.39ZM902.05,426.56q9.19,9.31,23.12,9.31t23.12-9.31q9.21-9.31,9.21-23.43t-9.21-23.43q-9.21-9.3-23.12-9.31t-23.12,9.31q-9.21,9.32-9.21,23.43T902.05,426.56Z" transform="translate(-147.83 -253.33)"/><path class="cls-4" d="M1028.5,412.54q2.45,12.29,10.94,18.83t20.57,6.55a30.92,30.92,0,0,0,14.73-3.48,21.57,21.57,0,0,0,9.41-9l22.51-.21a43,43,0,0,1-17.29,23.23Q1076.79,457,1059.6,457q-24.15,0-39.09-15.25t-14.93-38.57q0-23.11,14.93-38.47t38.68-15.34q22.5,0,36.62,15.65t14.12,38.37a67.45,67.45,0,0,1-.82,9.2Zm-.21-18.21h59.34q-2-12.27-9.93-18.62a28.66,28.66,0,0,0-18.51-6.34q-12.29,0-20.46,6.75T1028.29,394.33Z" transform="translate(-147.83 -253.33)"/><path class="cls-4" d="M1194.64,352h23.53l-37.24,102.31H1157.4L1120,352h23.53l25.58,76.12Z" transform="translate(-147.83 -253.33)"/></svg>